<svg width="290" height="28" viewBox="0 0 290 28" fill="none" xmlns="http://www.w3.org/2000/svg">
<path d="M216.659 21.8392L217.099 19.5994H225.499L225.339 20.3593C225.285 20.6527 225.352 20.9193 225.539 21.1593C225.725 21.3726 225.965 21.4792 226.258 21.4792H242.017L237.337 20.0794L237.777 17.9196C237.831 17.6263 237.764 17.373 237.577 17.1596C237.391 16.9197 237.151 16.7997 236.857 16.7997H223.899C223.099 16.7997 222.352 16.6264 221.659 16.2797C220.966 15.9331 220.392 15.4798 219.939 14.9198C219.486 14.3599 219.152 13.7066 218.939 12.96C218.752 12.2134 218.739 11.4402 218.899 10.6402L220.179 4.12084C220.419 2.92095 221.006 1.93438 221.939 1.16112C222.899 0.387852 223.992 0.0012207 225.219 0.0012207H243.697C244.497 0.0012207 245.243 0.174538 245.937 0.521173C246.63 0.867808 247.203 1.3211 247.656 1.88105C248.11 2.441 248.443 3.09427 248.656 3.84087C248.87 4.5608 248.896 5.32073 248.736 6.12066L248.256 8.40045H239.857L240.017 7.64052C240.071 7.34721 240.004 7.0939 239.817 6.88059C239.631 6.64061 239.391 6.52062 239.097 6.52062H223.179L227.818 7.92049L227.498 9.60034C227.445 9.89364 227.512 10.1603 227.698 10.4003C227.885 10.6136 228.125 10.7202 228.418 10.7202H239.017C239.817 10.7202 240.47 10.7202 240.977 10.7202L241.737 10.7602C242.51 10.8136 243.204 11.0269 243.817 11.4002C244.457 11.7468 244.99 12.2001 245.417 12.76C245.843 13.32 246.15 13.9599 246.337 14.6799C246.523 15.3731 246.537 16.1064 246.377 16.8797L244.977 23.879C244.737 25.0789 244.137 26.0655 243.177 26.8388C242.244 27.612 241.164 27.9986 239.937 27.9986H221.659C220.859 27.9986 220.112 27.8253 219.419 27.4787C218.726 27.1321 218.153 26.6788 217.699 26.1188C217.246 25.5589 216.913 24.9056 216.699 24.159C216.513 23.4124 216.499 22.6391 216.659 21.8392Z" fill="#EEC76A"/>
<path d="M188.584 0.0012207H217.141L215.821 6.52062H201.543L206.222 7.92049L202.183 27.9986H192.863L197.143 6.52062H187.264L188.584 0.0012207Z" fill="#EEC76A"/>
<path d="M162.482 6.52062L167.161 7.92049L166.561 10.9602H181.52L180.32 17.0397H165.321L164.681 20.3593C164.628 20.6527 164.695 20.9193 164.881 21.1593C165.068 21.3726 165.308 21.4792 165.601 21.4792H182.16L180.88 27.9986H160.442C159.695 27.9986 159.002 27.852 158.362 27.5587C157.749 27.2387 157.229 26.8254 156.802 26.3188C156.402 25.7855 156.109 25.1856 155.922 24.519C155.736 23.8257 155.709 23.1191 155.842 22.3992L160.322 0.0012207H186.479L185.159 6.52062H162.482Z" fill="#EEC76A"/>
<path d="M135.366 16.6397L127.087 23.0791L131.286 20.9993L129.886 27.9986H121.487L127.087 0.0012207H135.486L133.486 10.0403L147.165 0.0012207H156.964L141.845 11.6402L152.764 27.9986H142.965L135.366 16.6397Z" fill="#EEC76A"/>
<path d="M94.0125 6.52062L98.6921 7.92049L96.2123 20.3593C96.159 20.6527 96.2256 20.9193 96.4123 21.1593C96.5989 21.3726 96.8389 21.4792 97.1322 21.4792H108.091C108.571 21.4792 108.878 21.2259 109.011 20.7193L109.411 18.6795H117.81L116.69 24.239C116.477 25.3589 115.944 26.2655 115.091 26.9587C114.237 27.652 113.251 27.9986 112.131 27.9986H91.2928C90.6528 27.9986 90.0529 27.8653 89.4929 27.5987C88.933 27.332 88.4664 26.9721 88.0931 26.5188C87.7198 26.0388 87.4531 25.5055 87.2931 24.9189C87.1331 24.3323 87.1198 23.719 87.2531 23.0791L91.1328 3.76088C91.3461 2.64098 91.8794 1.7344 92.7326 1.04113C93.5859 0.347856 94.5725 0.0012207 95.6924 0.0012207H116.05C116.77 0.0012207 117.437 0.161207 118.05 0.481178C118.69 0.774484 119.224 1.18778 119.65 1.72106C120.077 2.22768 120.383 2.8143 120.57 3.4809C120.757 4.14751 120.77 4.84078 120.61 5.56071L119.85 9.32036H111.451L111.811 7.64052C111.864 7.34721 111.798 7.0939 111.611 6.88059C111.424 6.64061 111.184 6.52062 110.891 6.52062H94.0125Z" fill="#EEC76A"/>
<path d="M72.3885 27.9986L77.988 0.0012207H86.3873L85.0674 6.52062H80.1478L84.7874 7.92049L80.7878 27.9986H72.3885Z" fill="#EEC76A"/>
<path d="M54.5631 20.0794H44.324L42.7242 27.9986H34.325L39.9244 0.0012207H66.882C67.6286 0.0012207 68.3085 0.161207 68.9218 0.481178C69.5617 0.774484 70.0817 1.18778 70.4816 1.72106C70.9083 2.22768 71.2149 2.8143 71.4015 3.4809C71.5882 4.14751 71.6149 4.84078 71.4815 5.56071L69.3217 16.3197C69.1084 17.413 68.5751 18.3195 67.7219 19.0395C66.8686 19.7327 65.882 20.0794 64.7622 20.0794H62.9623L66.522 27.9986H58.1228L54.5631 20.0794ZM60.7225 13.52C60.9358 13.52 61.1225 13.4533 61.2825 13.32C61.4691 13.1867 61.5891 13.0134 61.6424 12.8L62.6423 7.64052C62.6957 7.34721 62.629 7.0939 62.4424 6.88059C62.2824 6.64061 62.0557 6.52062 61.7624 6.52062H42.0842L46.7238 7.92049L45.6039 13.52H60.7225Z" fill="#EEC76A"/>
<path d="M6.85028 6.52062L11.5298 7.92049L9.05008 20.3593C8.99675 20.6527 9.06341 20.9193 9.25006 21.1593C9.43671 21.3726 9.67669 21.4792 9.96999 21.4792H20.929C21.4089 21.4792 21.7156 21.2259 21.8489 20.7193L22.2489 18.6795H30.6481L29.5282 24.239C29.3149 25.3589 28.7816 26.2655 27.9283 26.9587C27.0751 27.652 26.0885 27.9986 24.9686 27.9986H4.13053C3.49059 27.9986 2.89064 27.8653 2.33069 27.5987C1.77075 27.332 1.30412 26.9721 0.930823 26.5188C0.557524 26.0388 0.290882 25.5055 0.130897 24.9189C-0.0290882 24.3323 -0.0424203 23.719 0.0909007 23.0791L3.97054 3.76088C4.18386 2.64098 4.71714 1.7344 5.5704 1.04113C6.42365 0.347856 7.41023 0.0012207 8.53012 0.0012207H28.8883C29.6082 0.0012207 30.2748 0.161207 30.8881 0.481178C31.528 0.774484 32.0613 1.18778 32.4879 1.72106C32.9145 2.22768 33.2212 2.8143 33.4078 3.4809C33.5945 4.14751 33.6078 4.84078 33.4478 5.56071L32.6879 9.32036H24.2887L24.6486 7.64052C24.702 7.34721 24.6353 7.0939 24.4487 6.88059C24.262 6.64061 24.022 6.52062 23.7287 6.52062H6.85028Z" fill="#EEC76A"/>
<path d="M289.849 3.4809C290.036 4.14751 290.049 4.84078 289.889 5.56071L285.41 27.9986H277.01L281.33 6.52062H276.93L278.25 0.0012207H285.33C286.076 0.0012207 286.756 0.161207 287.369 0.481178C288.009 0.774484 288.529 1.18778 288.929 1.72106C289.356 2.22768 289.663 2.8143 289.849 3.4809Z" fill="#EEC76A"/>
<path d="M273.757 3.4809C273.944 4.14751 273.957 4.84078 273.797 5.56071L269.317 27.9986H260.918L265.238 6.52062H260.838L262.158 0.0012207H269.237C269.984 0.0012207 270.664 0.161207 271.277 0.481178C271.917 0.774484 272.437 1.18778 272.837 1.72106C273.264 2.22768 273.57 2.8143 273.757 3.4809Z" fill="#EEC76A"/>
</svg>